<?xml version="1.0" encoding="utf-8"?>
<!-- Generator: Adobe Illustrator 19.1.0, SVG Export Plug-In . SVG Version: 6.00 Build 0)  -->
<svg version="1.1" id="Layer_1" xmlns="http://www.w3.org/2000/svg" xmlns:xlink="http://www.w3.org/1999/xlink" x="0px" y="0px"
	 viewBox="0 0 595.3 841.9" style="enable-background:new 0 0 595.3 841.9;" xml:space="preserve">
<style type="text/css">
	.st0{fill:#FF6200;}
</style>
<g>
	<path class="st0" d="M195,437.3c1.6,0,2.9-1.3,2.9-2.9s-1.3-2.9-2.9-2.9c-1.6,0-2.9,1.3-2.9,2.9S193.4,437.3,195,437.3z"/>
	<path class="st0" d="M195,438c-3.1,0-5.6,2.5-5.6,5.6v4.8l-1.1-6.2c-0.4-2.1-2.3-3.7-4.5-3.7c-2.2,0-4.1,1.6-4.5,3.7l-1.3,7.3
		c0-2.3-1.9-4.2-4.3-4.2c-2.4,0-4.3,1.9-4.3,4.3v4.6c0,0.6,0.4,1,1,1h0.4v7.8h1v0h3.8v0h1v-7.8h0.4c0.6,0,1-0.4,1-1v-1.7
		c0.2,0.1,0.4,0.2,0.6,0.2l2.5,0V463h1v0h3.5v0h1v-10.2h2.5c0.3,0,0.5-0.1,0.7-0.3c0.2,0.2,0.4,0.3,0.7,0.3h1V463h1v0h5.4v0h1v-10.2
		h0.9c0.6,0,1-0.4,1-1v-8.2C200.6,440.5,198.1,438,195,438z"/>
	<circle class="st0" cx="173.6" cy="442.7" r="2.3"/>
	<path class="st0" d="M180.5,436.3c0-0.3,0.2-0.6,0.5-0.7c0.4,1.1,1.4,1.8,2.6,1.8c1.6,0,2.9-1.3,2.9-2.9s-1.3-2.9-2.9-2.9
		c-1.2,0-2.3,0.8-2.7,1.9c-1.4,0.2-2.5,1.3-2.5,2.8v1.5h2V436.3z"/>
</g>
<path class="st0" d="M197.9,231.3c-0.1,0-0.3-0.2-0.6-0.4l-7.7-6c-0.1-0.1-0.2-0.1-0.2-0.2v-1c0-0.5-0.4-0.9-0.7-1.2
	c-0.4-0.3-0.7-0.2-0.9-0.1c-0.4,0.1-0.8,0.5-1.1,0.8l-0.5,0.6c-0.1,0.1-0.3,0.2-0.4,0.1c-0.1,0-2.9-0.6-4.8-0.6
	c-8,0-14.6,4.7-14.6,10.4c0,2.3,1.1,4.5,3,6.4l0,0l4.2,4.2c0,0,0.8,0.8,1.5,0.8c0.1,0,0.2,0,0.3,0c0.5-0.2,0.8-0.7,0.8-1.3v-0.2
	c0.6,0.1,2.9,0.6,4.6,0.6c1.7,0,4-0.4,4.6-0.6v0.2c0,0.5,0.4,0.9,0.7,1.2c0.4,0.3,0.7,0.2,0.9,0.1c0.3-0.1,0.8-0.4,1.1-0.7l9-7.9
	c0.1-0.1,0.2-0.2,0.4-0.3c0.3-0.2,0.5-0.4,0.6-0.6c0.1-0.3,0.2-0.8,0.2-1.1v-1.5C198.5,232.6,198.5,231.5,197.9,231.3z M185.4,228.7
	l-1-0.2c-2-0.4-4.2-0.5-6.3-0.1l-1,0.2l-0.4-2l1-0.2c2.3-0.4,4.8-0.4,7.1,0.1l1,0.2L185.4,228.7z M191.2,233.3
	c-0.9,0-1.6-0.7-1.6-1.6c0-0.9,0.7-1.6,1.6-1.6c0.9,0,1.6,0.7,1.6,1.6C192.8,232.6,192,233.3,191.2,233.3z"/>
<g>
	<path class="st0" d="M182.5,193.9c-0.2,0-0.5,0-0.7-0.1c-0.6-0.3-15.1-6.7-15.1-17.3c0-5.1,3.1-10.7,9.9-10.3
		c2.8,0.2,4.8,1.6,5.9,2.9c1.2-1.3,3.1-2.7,5.9-2.9c6.8-0.3,9.9,5.2,9.9,10.3c0,10.6-14.5,17-15.1,17.3
		C183,193.9,182.7,193.9,182.5,193.9z"/>
</g>
<path class="st0" d="M198,330.2c-0.2-0.2-0.4-0.3-0.7-0.3h-8.9v2h6.5l-11.2,11.2l-5.6-5.6c-0.2-0.2-0.4-0.3-0.7-0.3
	s-0.5,0.1-0.7,0.3l-10,10l1.4,1.4l9.3-9.3l5.6,5.6c0.2,0.2,0.4,0.3,0.7,0.3s0.5-0.1,0.7-0.3l11.9-11.9l0,6.5h2l0-8.9
	C198.3,330.7,198.2,330.4,198,330.2z"/>
<path class="st0" d="M197.1,285v16.8c0,1.4-1.2,2.6-2.6,2.6h-3.5V292c0-0.8-0.6-1.4-1.4-1.4H186c-0.8,0-1.4,0.6-1.4,1.4v12.4h-14.2
	c-1.4,0-2.6-1.2-2.6-2.6V285c0-0.9,0.5-1.9,1.2-2.5l11.7-9.5c1-0.8,2.5-0.8,3.5,0l11.7,9.5C196.7,283.1,197.1,284.1,197.1,285
	 M180.4,295.7V292c0-0.8-0.6-1.4-1.4-1.4h-3.7c-0.8,0-1.4,0.6-1.4,1.4v3.7c0,0.8,0.6,1.4,1.4,1.4h3.7
	C179.8,297.1,180.4,296.5,180.4,295.7"/>
<g>
	<g>
		<path class="st0" d="M177.3,396.4c-5.8,0-10.6-4.8-10.6-10.6c0-5.8,4.8-10.6,10.6-10.6c5.8,0,10.6,4.8,10.6,10.6
			C187.9,391.7,183.2,396.4,177.3,396.4z M177.3,378.2c-4.2,0-7.6,3.4-7.6,7.6c0,4.2,3.4,7.6,7.6,7.6s7.6-3.4,7.6-7.6
			C184.9,381.6,181.5,378.2,177.3,378.2z"/>
	</g>
	<g>
		<path class="st0" d="M194.2,406.7c-0.4,0-0.8-0.1-1-0.4l-11.9-11.9c-0.5-0.5,4.2-5.1,4.6-4.6l11.9,11.9c0.3,0.3,0.4,0.7,0.4,1
			c0,0.4-0.2,0.8-0.4,1l-2.6,2.6C195,406.6,194.6,406.7,194.2,406.7z"/>
	</g>
</g>
<g>
	<path class="st0" d="M186.9,514h14l0-3.8l0-10.2h-3.5c-0.1,0-0.2,0.1-0.2,0.2l0,0c0,0,0,0.1,0,0.1c0,0,0,0,0,0l0,0
		c0.1,0.4,0.2,0.7,0.2,1.1c0,1.9-1.5,3.4-3.4,3.4c-1.4,0-2.7-0.9-3.2-2.1c-0.2-0.4-0.3-0.9-0.3-1.3c0-0.4,0.1-0.7,0.2-1.1l0-0.1
		c0,0,0-0.1-0.1-0.1c0,0-0.1-0.1-0.1-0.1h-3.6v3.3c0,1.2-1,2.2-2.2,2.2c-0.3,0-0.5,0-0.8-0.1c-0.9-0.3-1.9,0.4-1.9,1.3
		c0,0.8,0.6,1.4,1.4,1.4c0.2,0,0.3,0,0.4-0.1c1.5-0.5,3,0.6,3,2.1v0V514z"/>
	<path class="st0" d="M184.9,484h-14l0,10.7l0,3.3h3.5c0.1,0,0.2-0.1,0.2-0.2c0,0,0-0.1,0-0.1c-0.1-0.3-0.2-0.7-0.2-1.1
		c0-1.2,0.6-2.2,1.5-2.8c0.5-0.4,1.2-0.6,1.9-0.6c1.9,0,3.5,1.5,3.5,3.4c0,0.4-0.1,0.7-0.2,1.1l0,0.1c0,0.1,0.1,0.2,0.2,0.2h3.5
		v-3.3v0c0-1.2,1-2.2,2.2-2.2c0.1,0,0.3,0,0.4,0c0,0,0.1,0,0.1,0c0.1,0,0.1,0,0.2,0.1c0.2,0.1,0.3,0.1,0.4,0.1
		c0.6,0,1.1-0.3,1.3-0.8c0,0,0,0,0,0c0-0.1,0.1-0.2,0.1-0.3c0,0,0,0,0,0c0-0.1,0-0.2,0-0.3c0,0,0,0,0,0c0-0.1,0-0.2,0-0.3
		c0,0,0,0,0,0c-0.2-0.6-0.8-1.1-1.4-1.1c-0.1,0-0.3,0-0.4,0.1c0,0,0,0,0,0c-0.2,0.1-0.5,0.1-0.8,0.1c-1.2,0-2.2-1-2.2-2.2v0V484z"/>
	<path class="st0" d="M200.9,484l-10.7,0l-3.3,0v3.8c0,0.1,0.1,0.2,0.2,0.2c0,0,0.1,0,0.1,0c0,0,0.1,0,0.1,0c0.1,0,0.2-0.1,0.3-0.1
		c0.1,0,0.1,0,0.2,0c0.1,0,0.2,0,0.3,0c0,0,0.1,0,0.1,0c0,0,0,0,0,0c0.2,0,0.4,0,0.6,0.1c0,0,0,0,0,0c0.4,0.1,0.8,0.3,1.2,0.5
		c0,0,0,0,0,0c0.2,0.1,0.3,0.3,0.5,0.4c0,0,0,0,0,0c0.3,0.3,0.5,0.6,0.7,1c0,0,0,0.1,0,0.1c0.1,0.2,0.1,0.4,0.2,0.6c0,0,0,0.1,0,0.1
		c0,0.2,0.1,0.4,0.1,0.6c0,0,0,0,0,0c0,0,0,0,0,0c0,0,0,0,0,0c0,1.9-1.5,3.5-3.4,3.5c-0.3,0-0.6,0-0.8-0.1c-0.1,0-0.2,0-0.2-0.1
		l-0.1,0c-0.1,0-0.2,0.1-0.2,0.2v3.3h3.5c0.9,0,1.7,0.6,2,1.4c0.1,0.3,0.2,0.6,0.2,0.9c0,0.2,0,0.5-0.1,0.7
		c-0.1,0.2-0.1,0.3-0.1,0.5c0,0.2,0,0.4,0.1,0.5c0.2,0.5,0.7,0.9,1.3,0.9c0.8,0,1.5-0.6,1.5-1.4c0-0.2,0-0.3-0.1-0.4
		c-0.1-0.3-0.1-0.5-0.1-0.8c0-1.2,1-2.2,2.2-2.2h3.6V484z"/>
	<path class="st0" d="M184.9,510.2c0-0.1-0.1-0.2-0.2-0.2c0,0-0.1,0-0.1,0c-0.3,0.1-0.7,0.2-1.1,0.2c-1.9,0-3.4-1.5-3.4-3.4
		c0,0,0,0,0,0c0,0,0,0,0,0c0-1.9,1.5-3.5,3.4-3.5c0.4,0,0.7,0.1,1.1,0.2l0.1,0c0.1,0,0.2-0.1,0.2-0.2l0-3.3h-3.5
		c-1.2,0-2.2-1-2.2-2.2c0-0.3,0-0.5,0.1-0.8c0-0.2,0.1-0.3,0.1-0.5c0-0.8-0.6-1.4-1.4-1.4c-0.3,0-0.6,0.1-0.8,0.2
		c-0.4,0.3-0.6,0.7-0.6,1.2c0,0.2,0,0.3,0.1,0.4c0.1,0.2,0.1,0.5,0.1,0.8c0,0.9-0.6,1.7-1.4,2c-0.3,0.1-0.6,0.2-0.9,0.2h-3.5v14h14
		V510.2z"/>
</g>
<g>
	<path class="st0" d="M174.5,129.7c1.6,0,3-1.1,3.5-2.6h18.9v-2H178c-0.4-1.5-1.8-2.6-3.5-2.6c-1.6,0-3,1.1-3.5,2.6h-5.6v2h5.6
		C171.5,128.6,172.9,129.7,174.5,129.7z"/>
	<path class="st0" d="M188.6,120c1.6,0,3-1.1,3.5-2.6h4.7v-2h-4.7c-0.4-1.5-1.8-2.6-3.5-2.6s-3,1.1-3.5,2.6h-19.7v2h19.7
		C185.6,118.9,187,120,188.6,120z"/>
	<path class="st0" d="M193.6,131.8c-1.6,0-3,1.1-3.5,2.6h-24.7v2h24.7c0.4,1.5,1.8,2.6,3.5,2.6c2,0,3.6-1.6,3.6-3.6
		C197.2,133.4,195.6,131.8,193.6,131.8z"/>
</g>
<g>
	<path class="st0" d="M183,558.4l-0.7-0.7l4-4l-4.1-4.1l0.7-0.7l4.5,4.5c0.1,0.1,0.2,0.2,0.2,0.4c0,0.1-0.1,0.3-0.2,0.4L183,558.4z"
		/>
</g>
</svg>
